<svg version="1.1" xmlns="http://www.w3.org/2000/svg" style="display: block;" viewBox="0 0 2048 2048" width="1024" height="1024" preserveAspectRatio="none">
<g transform="rotate(45, 1024, 1024)">
<defs>
	<linearGradient id="Gradient1" gradientUnits="userSpaceOnUse" x1="1485.44" y1="692.547" x2="1484.2" y2="686.744">
		<stop class="stop0" offset="0" stop-opacity="0" stop-color="rgb(1,0,1)"/>
		<stop class="stop1" offset="1" stop-opacity="0.0313725" stop-color="rgb(2,2,3)"/>
	</linearGradient>
	<linearGradient id="Gradient2" gradientUnits="userSpaceOnUse" x1="1113.08" y1="1111.78" x2="1116.49" y2="1124.6">
		<stop class="stop0" offset="0" stop-opacity="0" stop-color="rgb(255,255,241)"/>
		<stop class="stop1" offset="1" stop-opacity="0.0352941" stop-color="rgb(238,238,214)"/>
	</linearGradient>
</defs>
<path transform="translate(0,0)" fill="rgb(119,121,61)" d="M 1254.61 324.979 C 1259.01 337.404 1263.26 349.883 1267.35 362.412 C 1296.84 454.691 1289.61 557.925 1251.88 646.574 C 1239.28 676.179 1224.65 701.351 1209.98 729.752 C 1220.79 656.537 1231.66 596.783 1236.32 521.466 C 1237.38 511.13 1238.64 489.748 1238.41 479.864 C 1237.56 480.556 1234.71 509.795 1234.33 513.229 C 1225.86 577.951 1218.03 641.782 1205.87 706.015 C 1200.59 733.912 1197.65 759.862 1188.55 787.132 C 1213.84 767.766 1241.47 751.298 1267.73 733.3 C 1352.05 675.511 1437.19 619.189 1523.89 565.018 C 1534.32 558.502 1547.13 550.456 1556.83 543.161 C 1567.55 536.487 1578.28 529.074 1588.99 522.537 C 1597.3 517.462 1599.25 517.967 1607.91 510.988 L 1607.52 510.571 C 1590.98 518.255 1569.46 530.726 1553.02 539.621 C 1473.79 585.351 1396.32 634.076 1320.79 685.69 C 1432.55 532.82 1553.99 439.809 1745.31 408.211 C 1760.81 405.649 1776.28 404.356 1791.9 402.626 C 1711.34 529.366 1590.78 625.591 1449.34 676.046 C 1425.61 684.589 1401.53 692.16 1377.18 698.743 C 1365.6 701.806 1331.92 708.281 1323.95 713.168 C 1289.67 734.177 1250.59 763.618 1218.86 787.553 C 1230.37 784.238 1242.59 784.294 1254.45 783.085 C 1349.66 773.379 1451.1 766.668 1544.74 747.517 C 1553.22 746.199 1570.22 743.826 1577.88 741.024 C 1565.4 742.381 1552.92 743.86 1540.47 745.462 C 1490.52 751.073 1440.53 756.376 1390.52 761.371 C 1358.25 764.374 1314 766.863 1282.84 771.635 C 1312.71 756.02 1333.21 743.545 1365.63 730.666 C 1472.02 688.353 1587.88 675.593 1700.93 693.736 C 1720.7 697.035 1744.42 701.776 1763.54 707.824 C 1765.28 708.358 1767.01 708.94 1768.72 709.571 C 1753.58 722.553 1722.02 740.278 1704.13 749.576 C 1609.1 798.97 1506.6 817.885 1399.8 809.711 C 1375.55 807.811 1351.41 804.792 1327.44 800.662 C 1315.82 798.691 1291.72 793.428 1281.43 793.162 C 1260.68 792.627 1208.27 799.359 1190.43 807.856 C 1180.82 812.435 1144.12 841.824 1133.99 849.842 C 1091.54 883.443 1048.16 916.5 1006.78 951.384 C 1000.46 956.714 994.411 962.219 987.964 967.422 C 1011.17 964.795 1034.81 963.663 1058.16 961.783 C 1112.48 957.818 1166.73 953.038 1220.91 947.443 C 1245.46 944.927 1269.96 941.946 1294.4 938.502 C 1303.09 937.247 1346.97 929.714 1352.94 930.353 L 1354.53 929.338 C 1344.57 929.171 1325.11 931.45 1314.33 932.416 L 1243.84 938.495 C 1180.96 943.527 1115.85 946.739 1053.45 952.403 C 1087.52 933.862 1113.66 920.474 1150.7 907.404 C 1269.71 865.409 1411.35 863.039 1532.24 898.717 C 1537.13 900.149 1542 901.642 1546.86 903.195 C 1421.58 990.35 1270.86 1013.98 1122.21 987.054 C 1104.82 983.904 1077.83 978.095 1061.34 975.98 C 1037.94 972.977 978.188 978.158 959.723 991.884 C 951.394 998.075 925.601 1021.78 916.702 1029.8 C 867.008 1074.54 819.253 1121.4 773.569 1170.23 C 794.187 1162.66 816.445 1158.22 836.644 1151.01 C 846.039 1147.65 865.895 1135.7 875.46 1130.63 C 894.742 1120.61 914.484 1111.49 934.619 1103.31 C 963.864 1091.54 989.758 1082.24 1020.44 1074.62 C 1128.53 1047.77 1246.6 1056.07 1347.93 1103.51 C 1350.38 1104.67 1352.79 1105.91 1355.16 1107.23 C 1206.4 1196.41 1033.27 1218.64 865.331 1176.68 C 858.226 1174.88 851.137 1173.01 844.064 1171.08 C 864.505 1166.71 885.32 1161.21 905.513 1155.72 C 970.552 1138.03 1035.4 1129.3 1102.21 1121.71 C 1117.02 1120.74 1143.8 1119.52 1157.58 1117.19 C 1140.4 1116.43 1120.15 1116.71 1102.94 1117.23 C 1094.74 1116.81 1076.57 1118.5 1068.28 1119.18 C 1036.34 1121.47 1004.56 1125.62 973.107 1131.61 C 929.984 1139.48 779.575 1173.55 750.977 1197.49 C 707.674 1233.74 598.804 1373.58 566.724 1420.04 C 584.572 1410.77 607.727 1403.38 622.251 1395.41 C 639.771 1385.8 661.984 1369.78 680.676 1358.82 C 799.159 1289.33 930.314 1262.77 1066.35 1283.42 C 1097.54 1288.16 1120.68 1294.37 1150.89 1302.42 C 1149.75 1303.33 1148.61 1304.23 1147.46 1305.12 C 1049.5 1380.96 914.107 1426.08 790.811 1428.9 C 738.872 1430.08 680.82 1424.01 629.337 1417.35 C 697.015 1389.11 780.574 1367.73 852.228 1353.31 C 871.353 1349.44 890.516 1345.76 909.714 1342.27 C 920.09 1340.43 936.866 1338.03 946.453 1335.33 C 940.503 1335.13 925.362 1337.11 918.857 1337.85 C 900.248 1339.85 881.688 1342.29 863.193 1345.16 C 788.051 1357.12 595.278 1400.76 542.179 1454.47 C 528.67 1468.13 516.819 1489.34 506.083 1505.56 C 481.813 1541.99 458.202 1578.85 435.261 1616.13 C 422.976 1636.67 410.969 1657.36 399.241 1678.22 C 390.731 1693.18 381.571 1709.96 371.503 1723.83 C 323.352 1701.19 346.681 1678.57 366.665 1645.39 C 393.063 1601.32 420.813 1558.07 449.876 1515.71 C 463.154 1496.55 481.556 1473.42 492.29 1452.83 C 500.631 1436.82 502.738 1391.48 501.518 1372.98 C 500.87 1363.16 490.71 1342.63 486.659 1333.08 C 481.084 1319.95 475.755 1306.73 470.675 1293.41 C 418.969 1156.88 422.318 990.433 482.429 857.233 C 492.93 870.017 514.035 908.758 521.185 923.995 C 576.283 1041.41 582.353 1169.71 546.515 1293.63 C 540.434 1314.66 532.783 1334.45 525.147 1355.07 C 525.159 1345.48 524.667 1335.81 524.298 1326.22 C 521.013 1240.75 517.001 1155.22 503.513 1070.72 C 502.742 1066.38 500.83 1054.18 499.456 1050.73 C 499.251 1054.88 500.455 1068.52 501.649 1071.9 C 510.899 1184.71 518.086 1314.69 512.99 1427.59 C 524.879 1410.2 541.6 1389.41 554.707 1372.64 C 588.126 1329.88 622.861 1288.17 658.86 1247.56 C 677.802 1226.09 701.103 1203.51 718.345 1181.35 C 727.004 1170.22 737.328 1119.26 736.976 1104.49 C 736.755 1095.25 729.465 1071.19 726.698 1060.58 C 723.359 1047.45 720.401 1034.23 717.826 1020.93 C 696.764 912.38 708.193 800.027 750.683 697.941 C 761.673 671.22 779.045 636.59 795.214 612.625 C 811.888 643.496 827.51 701.655 833.109 735.794 C 849.763 837.332 834.739 941.612 791.609 1034.89 C 783.927 1051.5 772.388 1077.9 761.882 1092.53 L 760.983 1092.27 C 763.104 1085.05 762.365 1081.45 763.472 1074.87 C 766.054 1059.53 768.295 1043.57 769.595 1028.05 C 775.324 959.611 782.97 890.263 782.186 821.592 C 782.14 817.501 782.448 803.467 781.534 800.542 C 775.935 883.16 767.868 965.593 757.343 1047.73 C 753.266 1080.95 748.768 1126.64 742.376 1158.37 C 787.765 1110.21 842.708 1060.19 892.212 1016.38 C 905.901 1004.45 919.761 992.711 933.787 981.179 C 938.498 977.244 955.807 963.123 959.466 958.365 C 974.866 938.342 995.696 898.835 999.636 874.186 C 1000.35 869.708 996.349 844.107 995.759 838.385 C 994.386 825.058 993.668 812.271 992.883 799.224 C 985.949 683.948 1017.29 568.991 1069.8 467.048 C 1077.09 452.896 1099.25 413.76 1109.21 402.59 C 1127.81 451.114 1140.74 494.639 1144.63 547.014 C 1151.47 643.045 1125.6 738.563 1071.24 818.02 C 1057.53 838.204 1041.65 856.626 1025.77 875.112 C 1051.71 794.188 1074.89 713.085 1083.52 628.118 C 1084.1 622.471 1086.62 600.808 1085.88 596.45 L 1084.23 597.856 C 1084.85 610.099 1076.49 646.251 1073.76 659.31 C 1057.59 736.501 1037.86 815.422 1009.88 889.229 C 1005.16 901.681 998.655 920.266 993.013 931.942 L 992.423 933.135 C 1024.15 907.523 1056.39 882.566 1089.14 858.279 C 1110.63 842.173 1149.53 815.805 1169.51 798.309 C 1178.75 779.36 1188 754.603 1189.61 733.653 C 1189.12 722.442 1185.73 709.268 1183.38 698.473 C 1153.69 562.173 1179.8 440.586 1254.61 324.979 z"/>
<path transform="translate(0,0)" fill="rgb(244,245,219)" fill-opacity="0.0117647" d="M 1553.02 539.621 C 1569.46 530.726 1590.98 518.255 1607.52 510.571 L 1607.91 510.988 C 1599.25 517.967 1597.3 517.462 1588.99 522.537 C 1578.28 529.074 1567.55 536.487 1556.83 543.161 L 1553.02 539.621 z"/>
<path transform="translate(0,0)" fill="url(#Gradient2)" d="M 1102.94 1117.23 C 1120.15 1116.71 1140.4 1116.43 1157.58 1117.19 C 1143.8 1119.52 1117.02 1120.74 1102.21 1121.71 C 1095.46 1120.02 1090.71 1122.32 1085.56 1121.05 C 1091.97 1118.78 1095.48 1119.02 1102.3 1118.64 L 1102.94 1117.23 z"/>
<path transform="translate(0,0)" fill="rgb(244,245,219)" fill-opacity="0.0117647" d="M 1234.33 513.229 C 1234.71 509.795 1237.56 480.556 1238.41 479.864 C 1238.64 489.748 1237.38 511.13 1236.32 521.466 C 1235.85 517.479 1235.9 516.828 1234.33 513.229 z"/>
<path transform="translate(0,0)" fill="rgb(244,245,219)" fill-opacity="0.0196078" d="M 1540.47 745.462 C 1552.92 743.86 1565.4 742.381 1577.88 741.024 C 1570.22 743.826 1553.22 746.199 1544.74 747.517 L 1540.47 745.462 z"/>
<path transform="translate(0,0)" fill="rgb(244,245,219)" fill-opacity="0.0588235" d="M 501.649 1071.9 C 500.455 1068.52 499.251 1054.88 499.456 1050.73 C 500.83 1054.18 502.742 1066.38 503.513 1070.72 L 501.649 1071.9 z"/>
<path transform="translate(0,0)" fill="url(#Gradient1)" d="M 1483.33 686.631 C 1483.67 688.624 1483.43 687.678 1485.06 689.511 L 1484.52 690.098 L 1483.76 688.501 L 1485.2 690.451 C 1486.43 687.792 1485.44 688.715 1487.78 687.258 L 1488.68 688.359 L 1488.35 690.465 L 1489.88 692.012 C 1486.69 693.411 1482.96 693.564 1480.96 690.413 L 1483.33 686.631 z"/>
</g>
</svg>